<svg xmlns="http://www.w3.org/2000/svg" viewBox="0 0 284 240.07"><defs><style>.cls-1{fill:#604098;}</style></defs><g id="Layer_2" data-name="Layer 2"><g id="Layer_1-2" data-name="Layer 1"><path class="cls-1" d="M82.31,150.25c15.34-7.67,31.2-15.6,59.69-15.6s44.35,7.93,59.69,15.6c10.21,5.1,20.62,10.3,35.61,13.67A148.77,148.77,0,0,0,258.58,167l-12.77-20.76a145,145,0,0,1-22.4-4.91c-11.63-3.57-20.63-8.07-29.09-12.3-14.88-7.44-27.73-13.86-52.32-13.86s-37.44,6.42-52.32,13.86c-8.46,4.23-17.46,8.73-29.09,12.3a145,145,0,0,1-22.4,4.91L25.42,167a148.77,148.77,0,0,0,21.28-3.11C61.69,160.55,72.1,155.35,82.31,150.25Z"/><path class="cls-1" d="M82.31,114.3c15.34-7.67,31.2-15.6,59.69-15.6s44.35,7.93,59.69,15.6c2.39,1.2,4.8,2.4,7.27,3.58a130.53,130.53,0,0,0,25.11,9.32l-71-115.33-.32-.51-.27-.45-.3-.43a24.73,24.73,0,0,0-40.42,0l-.3.43-.27.45-.32.51-71,115.33A130.53,130.53,0,0,0,75,117.88C77.51,116.7,79.92,115.5,82.31,114.3Z"/><path class="cls-1" d="M280.06,201.93l-11-17.86c-7.44-.19-14.15-.69-20.27-1.45-25.57-3.17-40.73-10.74-54.48-17.61-14.88-7.44-27.73-13.86-52.32-13.86S104.56,157.57,89.68,165c-13.75,6.87-28.91,14.44-54.48,17.61-6.12.76-12.83,1.26-20.27,1.45l-11,17.86A24.62,24.62,0,0,0,0,215.32a25.08,25.08,0,0,0,24.75,24.75c11.07,0,23.3-6.64,40.22-15.82,22.46-12.19,50.41-27.35,77-27.35s54.54,15.15,77,27.33c16.94,9.2,29.18,15.84,40.27,15.84,13.18,0,24.75-11.57,24.75-24.75A24.62,24.62,0,0,0,280.06,201.93Z"/></g></g></svg>